<!-- Generated by IcoMoon.io -->
<svg version="1.1" xmlns="http://www.w3.org/2000/svg" width="20" height="28" viewBox="0 0 20 28">
<title>angellist</title>
<path d="M14.891 5.906l-1.781 5.125 1.828 0.328c0.469-1.281 2.578-7.047 2.578-8.094 0-0.391-0.125-0.875-0.594-0.875-0.875 0-1.813 2.844-2.031 3.516zM10.219 16.641c0.172 0.453 0.359 0.906 0.516 1.375 0.344-0.391 0.703-0.75 1.109-1.047-0.547-0.109-1.094-0.156-1.625-0.328zM5.656 2.641c0 1.594 1.891 6.563 2.484 8.141 0.219-0.125 0.5-0.156 0.766-0.156 0.375 0 0.797 0.047 1.172 0.078l-1.891-5.484c-0.203-0.594-1.109-3.437-1.922-3.437-0.422 0-0.609 0.5-0.609 0.859zM4.422 14.5c0 1.141 3.063 5.344 4.203 5.344 0.313 0 0.578-0.344 0.578-0.625 0-0.359-0.359-1.25-0.5-1.594-0.406-1.047-1.891-4.281-3.172-4.281-0.422 0-1.109 0.734-1.109 1.156zM1.953 19.734c0 0.562 0.187 1.109 0.391 1.625 1.234 3.047 4.016 4.828 7.266 4.828 2.375 0 4.375-0.906 5.969-2.656 1.687-1.875 2.375-4.188 2.375-6.672 0-0.875 0.016-2.266-0.672-2.891-1.312-1.156-5.766-1.594-7.531-1.594-0.219 0-0.594 0.016-0.766 0.172-0.187 0.078-0.187 0.375-0.187 0.547 0 2.391 5.047 2.172 6.563 2.172 0.297 0 0.438 0.078 0.625 0.297 0.203 0.25 0.266 0.547 0.297 0.859-0.406 0.406-0.969 0.641-1.5 0.844-0.516 0.187-1.016 0.391-1.453 0.719-1.203 0.875-2.391 2.375-2.391 3.922 0 0.969 0.578 1.797 0.578 2.75 0 0.016-0.109 0.359-0.109 0.406-1.781-0.125-2.219-1.891-2.281-3.375-0.187 0.047-0.438 0.031-0.641 0.031 0.031 0.109 0.031 0.219 0.031 0.328 0 1.141-1.016 1.969-2.109 1.969-1.687 0-3.922-1.984-3.922-3.703 0-0.469 0.203-0.734 0.516-1.047 0.313 0.391 0.641 0.781 0.938 1.188 0.453 0.609 1.234 1.625 2.078 1.625 0.219 0 0.641-0.187 0.641-0.453 0-0.703-2.562-4-3.187-4-0.984 0-1.516 1.297-1.516 2.109zM0.172 19.875c0-2.031 0.781-3.375 2.797-3.922-0.172-0.453-0.438-1.141-0.438-1.625 0-1.281 1.578-2.875 2.859-2.875 0.375 0 0.75 0.109 1.094 0.234-0.656-1.859-2.547-7.094-2.547-8.859 0-1.578 0.797-2.828 2.5-2.828 2.187 0 4.672 7.875 5.203 9.438 0.688-1.719 2.844-8.922 5.281-8.922 1.531 0 2.391 1.219 2.391 2.672 0 1.656-1.844 6.813-2.484 8.594 2.625 0.641 3 2.766 3 5.125 0 6.25-3.984 11.094-10.437 11.094-1.188 0-2.359-0.234-3.484-0.656-2.969-1.125-5.734-4.172-5.734-7.469z"></path>
</svg>
